{
  "accessors": [
    {
      "bufferView": 2,
      "componentType": 5126,
      "count": 15647,
      "max": [
        10.583316802978516,
        11.479734420776367,
        10.087101936340332
      ],
      "min": [
        -10.583316802978516,
        -11.479734420776367,
        -10.087101936340332
      ],
      "type": "VEC3"
    },
    {
      "bufferView": 2,
      "byteOffset": 187764,
      "componentType": 5126,
      "count": 15647,
      "max": [
        0.99993324279785156,
        0.99987214803695679,
        0.99993914365768433
      ],
      "min": [
        -0.99995326995849609,
        -0.99997591972351074,
        -0.99980664253234863
      ],
      "type": "VEC3"
    },
    {
      "bufferView": 3,
      "componentType": 5126,
      "count": 15647,
      "max": [
        0.99927282333374023,
        0.99999231100082397,
        0.99986696243286133,
        1
      ],
      "min": [
        -0.999755859375,
        -0.9997749924659729,
        -0.99995660781860352,
        -1
      ],
      "type": "VEC4"
    },
    {
      "bufferView": 1,
      "componentType": 5126,
      "count": 15647,
      "max": [
        0.97323250770568848,
        0.99799996614456177
      ],
      "min": [
        0.0020000000949949026,
        0.0020000000949949026
      ],
      "type": "VEC2"
    },
    {
      "bufferView": 0,
      "componentType": 5125,
      "count": 89982,
      "max": [
        15646
      ],
      "min": [
        0
      ],
      "type": "SCALAR"
    }
  ],
  "asset": {
    "extras": {
      "author": "3dhdscan (https://sketchfab.com/3dhdscan)",
      "license": "CC-BY-NC-4.0 (http://creativecommons.org/licenses/by-nc/4.0/)",
      "source": "https://sketchfab.com/models/35c6e714b78e4dab81ff5d9911e0a5e5",
      "title": "Apple"
    },
    "generator": "Sketchfab-3.18.7",
    "version": "2.0"
  },
  "bufferViews": [
    {
      "buffer": 0,
      "byteLength": 359928,
      "byteOffset": 0,
      "name": "floatBufferViews",
      "target": 34963
    },
    {
      "buffer": 0,
      "byteLength": 125176,
      "byteOffset": 359928,
      "byteStride": 8,
      "name": "floatBufferViews",
      "target": 34962
    },
    {
      "buffer": 0,
      "byteLength": 375528,
      "byteOffset": 485104,
      "byteStride": 12,
      "name": "floatBufferViews",
      "target": 34962
    },
    {
      "buffer": 0,
      "byteLength": 250352,
      "byteOffset": 860632,
      "byteStride": 16,
      "name": "floatBufferViews",
      "target": 34962
    }
  ],
  "buffers": [
    {
      "byteLength": 1110984,
      "uri": "scene.bin"
    }
  ],
  "extensionsRequired": [
    "KHR_materials_pbrSpecularGlossiness"
  ],
  "extensionsUsed": [
    "KHR_materials_pbrSpecularGlossiness"
  ],
  "images": [
    {
      "uri": "textures/jabko_s_occlusion.jpeg"
    },
    {
      "uri": "textures/jabko_s_diffuse.jpeg"
    },
    {
      "uri": "textures/jabko_s_normal.jpeg"
    }
  ],
  "materials": [
    {
      "doubleSided": true,
      "emissiveFactor": [
        0,
        0,
        0
      ],
      "extensions": {
        "KHR_materials_pbrSpecularGlossiness": {
          "diffuseFactor": [
            1,
            1,
            1,
            1
          ],
          "diffuseTexture": {
            "index": 1,
            "texCoord": 0
          },
          "glossinessFactor": 0.40415396339999998,
          "specularFactor": [
            0.16634908540000001,
            0.16634908540000001,
            0.16634908540000001
          ]
        }
      },
      "name": "jabko_s",
      "normalTexture": {
        "index": 2,
        "scale": 1,
        "texCoord": 0
      },
      "occlusionTexture": {
        "index": 0,
        "strength": 1,
        "texCoord": 0
      }
    }
  ],
  "meshes": [
    {
      "name": "jabko_s_jabko_s_0",
      "primitives": [
        {
          "attributes": {
            "NORMAL": 1,
            "POSITION": 0,
            "TANGENT": 2,
            "TEXCOORD_0": 3
          },
          "indices": 4,
          "material": 0,
          "mode": 4
        }
      ]
    }
  ],
  "nodes": [
    {
      "children": [
        1
      ],
      "name": "RootNode (gltf orientation matrix)",
      "rotation": [
        -0.70710678118654746,
        -0,
        -0,
        0.70710678118654757
      ]
    },
    {
      "children": [
        2
      ],
      "matrix": [
        -0.98911535739898682,
        0,
        0.14714208245277405,
        0,
        0.14714208245277405,
        0,
        0.98911535739898682,
        0,
        0,
        1,
        0,
        0,
        -0.92800182104110718,
        11.895509719848633,
        -11.826862335205078,
        1
      ],
      "name": "RootNode (model correction matrix)"
    },
    {
      "children": [
        3
      ],
      "matrix": [
        1,
        0,
        0,
        0,
        0,
        -1,
        0,
        0,
        0,
        0,
        -1,
        0,
        0,
        0,
        0,
        1
      ],
      "name": "jabko_s.FBX"
    },
    {
      "children": [
        4
      ],
      "name": "RootNode"
    },
    {
      "children": [
        5
      ],
      "matrix": [
        1,
        0,
        0,
        0,
        0,
        1,
        0,
        0,
        0,
        0,
        1,
        0,
        0.38447856903076172,
        -11.50456428527832,
        0.39093971252441406,
        1
      ],
      "name": "jabko_s"
    },
    {
      "mesh": 0,
      "name": "jabko_s_jabko_s_0"
    }
  ],
  "samplers": [
    {
      "magFilter": 9729,
      "minFilter": 9987,
      "wrapS": 10497,
      "wrapT": 10497
    }
  ],
  "scene": 0,
  "scenes": [
    {
      "name": "OSG_Scene",
      "nodes": [
        0
      ]
    }
  ],
  "textures": [
    {
      "sampler": 0,
      "source": 0
    },
    {
      "sampler": 0,
      "source": 1
    },
    {
      "sampler": 0,
      "source": 2
    }
  ]
}

