{
  "accessors": [
    {
      "bufferView": 2,
      "componentType": 5126,
      "count": 65532,
      "max": [
        6.993377685546875,
        -0.0065870285034179688,
        11.918338775634766
      ],
      "min": [
        -7.3076438903808594,
        -0.48393535614013672,
        -9.6836538314819336
      ],
      "type": "VEC3"
    },
    {
      "bufferView": 2,
      "byteOffset": 786384,
      "componentType": 5126,
      "count": 65532,
      "max": [
        1,
        1,
        0.99982714653015137
      ],
      "min": [
        -1,
        -0.99999994039535522,
        -0.99999129772186279
      ],
      "type": "VEC3"
    },
    {
      "bufferView": 1,
      "componentType": 5126,
      "count": 65532,
      "max": [
        0.99965602159500122,
        0.95985901355743408
      ],
      "min": [
        0.00024399999529123306,
        0.00028499998734332621
      ],
      "type": "VEC2"
    },
    {
      "bufferView": 0,
      "componentType": 5125,
      "count": 367182,
      "max": [
        65531
      ],
      "min": [
        0
      ],
      "type": "SCALAR"
    },
    {
      "bufferView": 2,
      "byteOffset": 1572768,
      "componentType": 5126,
      "count": 65532,
      "max": [
        6.993377685546875,
        -0.0065889358520507812,
        15.531633377075195
      ],
      "min": [
        -7.3076314926147461,
        -0.61820888519287109,
        0.15337657928466797
      ],
      "type": "VEC3"
    },
    {
      "bufferView": 2,
      "byteOffset": 2359152,
      "componentType": 5126,
      "count": 65532,
      "max": [
        1,
        1,
        0.94136476516723633
      ],
      "min": [
        -1,
        -1,
        -0.99722570180892944
      ],
      "type": "VEC3"
    },
    {
      "bufferView": 1,
      "byteOffset": 524256,
      "componentType": 5126,
      "count": 65532,
      "max": [
        0.99932998418807983,
        0.96092897653579712
      ],
      "min": [
        0.00024399999529123306,
        0.0002680000034160912
      ],
      "type": "VEC2"
    },
    {
      "bufferView": 0,
      "byteOffset": 1468728,
      "componentType": 5125,
      "count": 326466,
      "max": [
        65531
      ],
      "min": [
        0
      ],
      "type": "SCALAR"
    },
    {
      "bufferView": 2,
      "byteOffset": 3145536,
      "componentType": 5126,
      "count": 54195,
      "max": [
        6.993377685546875,
        -0.0065889358520507812,
        15.531633377075195
      ],
      "min": [
        -7.3076314926147461,
        -0.61820888519287109,
        0.12583780288696289
      ],
      "type": "VEC3"
    },
    {
      "bufferView": 2,
      "byteOffset": 3795876,
      "componentType": 5126,
      "count": 54195,
      "max": [
        1,
        1,
        1
      ],
      "min": [
        -1,
        -1,
        -0.99722570180892944
      ],
      "type": "VEC3"
    },
    {
      "bufferView": 1,
      "byteOffset": 1048512,
      "componentType": 5126,
      "count": 54195,
      "max": [
        0.99941301345825195,
        0.96166998147964478
      ],
      "min": [
        0.00024500000290572643,
        0.00024500000290572643
      ],
      "type": "VEC2"
    },
    {
      "bufferView": 0,
      "byteOffset": 2774592,
      "componentType": 5125,
      "count": 206340,
      "max": [
        54194
      ],
      "min": [
        0
      ],
      "type": "SCALAR"
    }
  ],
  "asset": {
    "extras": {
      "author": "Game industry veteran (https://sketchfab.com/zhengzhangxun)",
      "license": "CC-BY-4.0 (http://creativecommons.org/licenses/by/4.0/)",
      "source": "https://sketchfab.com/3d-models/stone-ground-01-cab20eda996a43d8879e048fd761c3d2",
      "title": "Stone Ground 01"
    },
    "generator": "Sketchfab-9.48.0",
    "version": "2.0"
  },
  "bufferViews": [
    {
      "buffer": 0,
      "byteLength": 3599952,
      "byteOffset": 0,
      "name": "floatBufferViews",
      "target": 34963
    },
    {
      "buffer": 0,
      "byteLength": 1482072,
      "byteOffset": 3599952,
      "byteStride": 8,
      "name": "floatBufferViews",
      "target": 34962
    },
    {
      "buffer": 0,
      "byteLength": 4446216,
      "byteOffset": 5082024,
      "byteStride": 12,
      "name": "floatBufferViews",
      "target": 34962
    }
  ],
  "buffers": [
    {
      "byteLength": 9528240,
      "uri": "scene.bin"
    }
  ],
  "extensionsUsed": [
    "KHR_materials_unlit"
  ],
  "images": [
    {
      "uri": "textures/Stone_ground_01_u1_v1_baseColor.jpeg"
    }
  ],
  "materials": [
    {
      "doubleSided": true,
      "emissiveFactor": [
        0,
        0,
        0
      ],
      "extensions": {
        "KHR_materials_unlit": {}
      },
      "name": "Stone_ground_01_u1_v1",
      "pbrMetallicRoughness": {
        "baseColorFactor": [
          1,
          1,
          1,
          1
        ],
        "baseColorTexture": {
          "index": 0,
          "texCoord": 0
        },
        "metallicFactor": 0,
        "roughnessFactor": 1
      }
    }
  ],
  "meshes": [
    {
      "primitives": [
        {
          "attributes": {
            "NORMAL": 1,
            "POSITION": 0,
            "TEXCOORD_0": 2
          },
          "indices": 3,
          "material": 0,
          "mode": 4
        }
      ]
    },
    {
      "primitives": [
        {
          "attributes": {
            "NORMAL": 5,
            "POSITION": 4,
            "TEXCOORD_0": 6
          },
          "indices": 7,
          "material": 0,
          "mode": 4
        }
      ]
    },
    {
      "primitives": [
        {
          "attributes": {
            "NORMAL": 9,
            "POSITION": 8,
            "TEXCOORD_0": 10
          },
          "indices": 11,
          "material": 0,
          "mode": 4
        }
      ]
    }
  ],
  "nodes": [
    {
      "children": [
        1
      ],
      "name": "RootNode (gltf orientation matrix)",
      "rotation": [
        -0.70710678118654746,
        -0,
        -0,
        0.70710678118654757
      ]
    },
    {
      "children": [
        2
      ],
      "matrix": [
        1,
        0,
        0,
        0,
        0,
        2.2204460492503131e-16,
        -1,
        0,
        0,
        1,
        2.2204460492503131e-16,
        0,
        0,
        -3.236382007598877,
        2.6115860939025879,
        1
      ],
      "name": "RootNode (model correction matrix)"
    },
    {
      "children": [
        3,
        4,
        5
      ],
      "name": "Stone_ground_01.obj.cleaner.materialmerger.gles"
    },
    {
      "mesh": 0,
      "name": ""
    },
    {
      "mesh": 1,
      "name": ""
    },
    {
      "mesh": 2,
      "name": ""
    }
  ],
  "samplers": [
    {
      "magFilter": 9729,
      "minFilter": 9987,
      "wrapS": 10497,
      "wrapT": 10497
    }
  ],
  "scene": 0,
  "scenes": [
    {
      "name": "OSG_Scene",
      "nodes": [
        0
      ]
    }
  ],
  "textures": [
    {
      "sampler": 0,
      "source": 0
    }
  ]
}

